<?xml version="1.0" encoding="UTF-8"?>
<svg width="377px" height="710px" viewBox="0 0 377 710" version="1.1" xmlns="http://www.w3.org/2000/svg" xmlns:xlink="http://www.w3.org/1999/xlink">
    <title>lines</title>
    <defs>
        <linearGradient x1="0%" y1="100%" x2="100%" y2="100%" id="linearGradient-1">
            <stop stop-color="#FFFFFF" stop-opacity="0" offset="0%"></stop>
            <stop stop-color="#FFFFFF" offset="49.9294797%"></stop>
            <stop stop-color="#FFFFFF" stop-opacity="0" offset="100%"></stop>
        </linearGradient>
        <linearGradient x1="50%" y1="0%" x2="50%" y2="100%" id="linearGradient-2">
            <stop stop-color="#FFFFFF" stop-opacity="0" offset="0%"></stop>
            <stop stop-color="#FFFFFF" offset="37.752801%"></stop>
            <stop stop-color="#FFFFFF" stop-opacity="0" offset="100%"></stop>
        </linearGradient>
    </defs>
    <g id="Page-1" stroke="none" stroke-width="1" fill="none" fill-rule="evenodd" opacity="0.227770444">
        <g id="Land-Paye-M" transform="translate(1.000000, 1.000000)">
            <g id="lines" transform="translate(0.000000, -1.000000)">
                <line x1="374.853592" y1="208.122496" x2="0.0976054138" y2="208.081664" id="Line" stroke="url(#linearGradient-1)" stroke-width="2" stroke-linecap="square"></line>
                <line x1="374.853592" y1="270.122496" x2="0.0976054138" y2="270.081664" id="Line-Copy-2" stroke="url(#linearGradient-1)" stroke-width="2" stroke-linecap="square"></line>
                <line x1="374.853592" y1="332.122496" x2="0.0976054138" y2="332.081664" id="Line-Copy-6" stroke="url(#linearGradient-1)" stroke-width="2" opacity="0.46723938" stroke-linecap="square"></line>
                <line x1="374.853592" y1="425.122496" x2="0.0976054138" y2="425.081664" id="Line-Copy-17" stroke="url(#linearGradient-1)" stroke-width="2" opacity="0.46723938" stroke-linecap="square"></line>
                <line x1="374.853592" y1="518.122496" x2="0.0976054138" y2="518.081664" id="Line-Copy-21" stroke="url(#linearGradient-1)" stroke-width="2" opacity="0.46723938" stroke-linecap="square"></line>
                <line x1="374.853592" y1="611.122496" x2="0.0976054138" y2="611.081664" id="Line-Copy-27" stroke="url(#linearGradient-1)" stroke-width="2" opacity="0.46723938" stroke-linecap="square"></line>
                <line x1="374.853592" y1="176.979584" x2="0.0976054138" y2="176.938752" id="Line-Copy-7" stroke="url(#linearGradient-1)" stroke-width="2" opacity="0.46723938" stroke-linecap="square"></line>
                <line x1="374.853592" y1="145.979584" x2="0.0976054138" y2="145.938752" id="Line-Copy-9" stroke="url(#linearGradient-1)" stroke-width="2" opacity="0.46723938" stroke-linecap="square"></line>
                <line x1="374.853592" y1="113.979584" x2="0.0976054138" y2="113.938752" id="Line-Copy-11" stroke="url(#linearGradient-1)" stroke-width="2" opacity="0.46723938" stroke-linecap="square"></line>
                <line x1="374.853592" y1="82.9795841" x2="0.0976054138" y2="82.9387522" id="Line-Copy-13" stroke="url(#linearGradient-1)" stroke-width="2" opacity="0.46723938" stroke-linecap="square"></line>
                <line x1="374.853592" y1="51.9795841" x2="0.0976054138" y2="51.9387522" id="Line-Copy-15" stroke="url(#linearGradient-1)" stroke-width="2" opacity="0.46723938" stroke-linecap="square"></line>
                <line x1="374.853592" y1="239.122496" x2="0.0976054138" y2="239.081664" id="Line" stroke="url(#linearGradient-1)" stroke-width="2" stroke-linecap="square"></line>
                <line x1="374.853592" y1="301.122496" x2="0.0976054138" y2="301.081664" id="Line-Copy-4" stroke="url(#linearGradient-1)" stroke-width="2" opacity="0.46723938" stroke-linecap="square"></line>
                <line x1="374.853592" y1="394.122496" x2="0.0976054138" y2="394.081664" id="Line-Copy-5" stroke="url(#linearGradient-1)" stroke-width="2" opacity="0.46723938" stroke-linecap="square"></line>
                <line x1="374.853592" y1="487.122496" x2="0.0976054138" y2="487.081664" id="Line-Copy-23" stroke="url(#linearGradient-1)" stroke-width="2" opacity="0.46723938" stroke-linecap="square"></line>
                <line x1="374.853592" y1="580.122496" x2="0.0976054138" y2="580.081664" id="Line-Copy-29" stroke="url(#linearGradient-1)" stroke-width="2" opacity="0.46723938" stroke-linecap="square"></line>
                <line x1="374.853592" y1="673.122496" x2="0.0976054138" y2="673.081664" id="Line-Copy-33" stroke="url(#linearGradient-1)" stroke-width="2" opacity="0.46723938" stroke-linecap="square"></line>
                <line x1="374.853592" y1="363.122496" x2="0.0976054138" y2="363.081664" id="Line-Copy-8" stroke="url(#linearGradient-1)" stroke-width="2" opacity="0.46723938" stroke-linecap="square"></line>
                <line x1="374.853592" y1="456.122496" x2="0.0976054138" y2="456.081664" id="Line-Copy-19" stroke="url(#linearGradient-1)" stroke-width="2" opacity="0.46723938" stroke-linecap="square"></line>
                <line x1="374.853592" y1="549.122496" x2="0.0976054138" y2="549.081664" id="Line-Copy-25" stroke="url(#linearGradient-1)" stroke-width="2" opacity="0.46723938" stroke-linecap="square"></line>
                <line x1="374.853592" y1="642.122496" x2="0.0976054138" y2="642.081664" id="Line-Copy-31" stroke="url(#linearGradient-1)" stroke-width="2" opacity="0.46723938" stroke-linecap="square"></line>
                <line x1="31.0866725" y1="1.28403023" x2="31.0866725" y2="708.629081" id="Line-Copy-10" stroke="url(#linearGradient-2)" stroke-width="2" opacity="0.375300816" stroke-linecap="square"></line>
                <line x1="62.0866725" y1="1.28403023" x2="62.0866725" y2="708.629081" id="Line-Copy-12" stroke="url(#linearGradient-2)" stroke-width="2" opacity="0.375300816" stroke-linecap="square"></line>
                <line x1="94.0866725" y1="1.28403023" x2="94.0866725" y2="708.629081" id="Line-Copy-14" stroke="url(#linearGradient-2)" stroke-width="2" opacity="0.375300816" stroke-linecap="square"></line>
                <line x1="125.086672" y1="1.28403023" x2="125.086672" y2="708.629081" id="Line-Copy-16" stroke="url(#linearGradient-2)" stroke-width="2" opacity="0.375300816" stroke-linecap="square"></line>
                <line x1="156.086672" y1="1.28403023" x2="156.086672" y2="708.629081" id="Line-Copy-18" stroke="url(#linearGradient-2)" stroke-width="2" opacity="0.375300816" stroke-linecap="square"></line>
                <line x1="187.086672" y1="1.28403023" x2="187.086672" y2="708.629081" id="Line-Copy-20" stroke="url(#linearGradient-2)" stroke-width="2" opacity="0.375300816" stroke-linecap="square"></line>
                <line x1="218.086672" y1="1.28403023" x2="218.086672" y2="708.629081" id="Line-Copy-22" stroke="url(#linearGradient-2)" stroke-width="2" opacity="0.375300816" stroke-linecap="square"></line>
                <line x1="249.086672" y1="1.28403023" x2="249.086672" y2="708.629081" id="Line-Copy-24" stroke="url(#linearGradient-2)" stroke-width="2" opacity="0.375300816" stroke-linecap="square"></line>
                <line x1="281.086672" y1="1.28403023" x2="281.086672" y2="708.629081" id="Line-Copy-26" stroke="url(#linearGradient-2)" stroke-width="2" opacity="0.375300816" stroke-linecap="square"></line>
                <line x1="312.086672" y1="1.28403023" x2="312.086672" y2="708.629081" id="Line-Copy-28" stroke="url(#linearGradient-2)" stroke-width="2" opacity="0.375300816" stroke-linecap="square"></line>
                <line x1="343.086672" y1="1.28403023" x2="343.086672" y2="708.629081" id="Line-Copy-30" stroke="url(#linearGradient-2)" stroke-width="2" opacity="0.375300816" stroke-linecap="square"></line>
                <polygon id="*" fill="#FFFFFF" fill-rule="nonzero" opacity="0.51978193" points="312.909722 20.9565557 314.125 20.0897332 312.456019 17.9472099 315 17.2275837 314.530093 15.8373968 312.131944 16.7859949 312.277778 13.9565557 310.770833 13.9565557 310.93287 16.7369295 308.453704 15.7556211 308 17.145808 310.511574 17.8654342 308.793981 20.057023 310.009259 20.87478 311.451389 18.6341258"></polygon>
                <polygon id="*-copy" fill="#FFFFFF" fill-rule="nonzero" opacity="0.51978193" points="343.909722 67.9565557 345.125 67.0897332 343.456019 64.9472099 346 64.2275837 345.530093 62.8373968 343.131944 63.7859949 343.277778 60.9565557 341.770833 60.9565557 341.93287 63.7369295 339.453704 62.7556211 339 64.145808 341.511574 64.8654342 339.793981 67.057023 341.009259 67.87478 342.451389 65.6341258"></polygon>
                <polygon id="*-copy-2" fill="#FFFFFF" fill-rule="nonzero" opacity="0.51978193" points="328.909722 175.956556 330.125 175.089733 328.456019 172.94721 331 172.227584 330.530093 170.837397 328.131944 171.785995 328.277778 168.956556 326.770833 168.956556 326.93287 171.73693 324.453704 170.755621 324 172.145808 326.511574 172.865434 324.793981 175.057023 326.009259 175.87478 327.451389 173.634126"></polygon>
                <polygon id="*-copy-4" fill="#FFFFFF" fill-rule="nonzero" opacity="0.51978193" points="79.9097222 191.956556 81.125 191.089733 79.4560185 188.94721 82 188.227584 81.5300926 186.837397 79.1319444 187.785995 79.2777778 184.956556 77.7708333 184.956556 77.9328704 187.73693 75.4537037 186.755621 75 188.145808 77.5115741 188.865434 75.7939815 191.057023 77.0092593 191.87478 78.4513889 189.634126"></polygon>
                <polygon id="*-copy-5" fill="#FFFFFF" fill-rule="nonzero" opacity="0.51978193" points="32.9097222 144.956556 34.125 144.089733 32.4560185 141.94721 35 141.227584 34.5300926 139.837397 32.1319444 140.785995 32.2777778 137.956556 30.7708333 137.956556 30.9328704 140.73693 28.4537037 139.755621 28 141.145808 30.5115741 141.865434 28.7939815 144.057023 30.0092593 144.87478 31.4513889 142.634126"></polygon>
                <polygon id="*-copy-6" fill="#FFFFFF" fill-rule="nonzero" opacity="0.51978193" points="63.9097222 82.9565557 65.125 82.0897332 63.4560185 79.9472099 66 79.2275837 65.5300926 77.8373968 63.1319444 78.7859949 63.2777778 75.9565557 61.7708333 75.9565557 61.9328704 78.7369295 59.4537037 77.7556211 59 79.145808 61.5115741 79.8654342 59.7939815 82.057023 61.0092593 82.87478 62.4513889 80.6341258"></polygon>
                <polygon id="*-copy-7" fill="#FFFFFF" fill-rule="nonzero" opacity="0.51978193" points="32.9097222 35.9565557 34.125 35.0897332 32.4560185 32.9472099 35 32.2275837 34.5300926 30.8373968 32.1319444 31.7859949 32.2777778 28.9565557 30.7708333 28.9565557 30.9328704 31.7369295 28.4537037 30.7556211 28 32.145808 30.5115741 32.8654342 28.7939815 35.057023 30.0092593 35.87478 31.4513889 33.6341258"></polygon>
            </g>
        </g>
    </g>
</svg>